<svg xmlns="http://www.w3.org/2000/svg" viewBox="838 650 376 376" width="376" height="376" version="1.1">
  <path d="M 838 650 L 1214 650 L 1214 1026 L 838 1026 L 838 650 z" fill="rgb(8,1,26)"/>
  <path d="M 1085.38 707.418 C 1100.81 706.733 1118.05 708.253 1130.42 718.565 C 1143.6 727.364 1148.07 757.317 1135.32 768.183 C 1117.66 783.232 1091.31 799.418 1071.69 812.494 L 963.092 885.359 C 957.663 888.988 951.346 892.829 946.166 896.682 C 934.529 905.337 913.01 914.635 915.836 932.218 C 920.053 957.883 957.289 961.303 976.304 952.172 C 1003.94 938.903 1028.13 911.972 1058.91 906.552 C 1094.16 900.343 1134.7 919.304 1141.13 956.989 C 1141.87 961.302 1142.56 965.013 1139.92 968.624 C 1138.18 968.372 1135.13 967.335 1134.8 965.906 C 1127.79 935.312 1117.25 921.931 1082.73 914.982 C 1036.3 905.639 1006.5 957.525 963.231 964.931 C 937.913 965.759 909.423 960.98 906.919 929.023 C 905.407 909.725 929.012 898.13 942.495 888.626 C 954.175 880.391 967.245 872.227 979.386 864.101 L 1086.15 792.242 C 1096.58 785.314 1122.35 770.514 1129.25 762.387 C 1146.12 742.502 1126.89 720.649 1105.69 717.176 C 1055.6 708.97 1031.45 764.28 983.08 767.761 C 945.839 770.441 911.242 751.058 905.578 712.426 C 905.222 709.941 906.75 709.037 908.372 707.727 C 909.67 707.801 913.048 708.259 913.289 709.835 C 918.92 746.66 953.724 764.58 989.018 758.107 C 1022.62 751.945 1051.19 712.211 1085.38 707.418 z" fill="rgb(169,245,206)"/>
</svg>
