<svg xmlns="http://www.w3.org/2000/svg" height="2048" preserveAspectRatio="none" style="display: block;" version="1.1" viewBox="0 0 2048 2048" width="2048">
<path d="M 0 0 L 2048 0 L 2048 2048 L 0 2048 L 0 0 z" fill="rgb(8,1,26)" transform="translate(0,0)"></path>
<path d="M 841.113 1122.38 C 875.015 1119 909.722 1125.37 937.359 1146.11 C 959.686 1162.55 974.484 1187.26 978.44 1214.7 C 984.341 1256.47 967.509 1298.35 931.442 1321.1 C 912.34 1333.15 895.311 1337.04 873.208 1339.87 C 836.885 1341.87 804.248 1338.18 774.52 1314.89 C 752.475 1297.6 738.223 1272.25 734.913 1244.43 C 727.038 1176.65 776.381 1129.45 841.113 1122.38 z" fill="rgb(169,245,206)" transform="translate(0,0)"></path>
<path d="M 843.344 1155.34 C 887.805 1150.12 931.418 1169.23 940.412 1216.5 C 944.527 1237.48 940.008 1259.23 927.877 1276.84 C 914.305 1296.15 895.685 1304.03 873.25 1307.93 C 848.157 1310.47 823.756 1308.65 802.645 1293.34 C 786.459 1281.54 775.708 1263.72 772.819 1243.9 C 765.608 1195.28 796.689 1162.24 843.344 1155.34 z" fill="rgb(8,1,26)" transform="translate(0,0)"></path>
<path d="M 1293.17 1194.18 C 1293.34 1175.77 1297.25 1160.46 1310.66 1147.22 C 1334.5 1123.69 1373.99 1121.44 1405.47 1121.95 C 1428.92 1122.32 1459.25 1125.6 1476.77 1143.21 C 1509.16 1175.75 1476.92 1276.38 1499.65 1299.07 C 1504.66 1304.06 1512.3 1304.71 1519.01 1305.21 L 1518.82 1333.48 C 1491.07 1335.26 1470.66 1332.21 1463.9 1300 C 1463.65 1298.78 1462.76 1294.37 1462.23 1293.36 C 1460.97 1290.55 1460.28 1288.85 1459.3 1285.95 C 1456.89 1295.89 1448.93 1306.83 1441.55 1314.19 C 1418.1 1337.56 1389.55 1337.86 1359.18 1339.26 C 1311.83 1341.45 1266.96 1309.1 1282.25 1256.91 C 1286.3 1242.88 1295.93 1231.13 1308.9 1224.42 C 1342.37 1206.83 1398.4 1219.7 1434.78 1209.68 C 1468.8 1200.31 1458.64 1157.74 1427.41 1152.64 C 1401.19 1148.37 1368.44 1147.97 1344.65 1161.49 C 1331.89 1168.89 1328.05 1180.33 1327.38 1194.04 L 1293.17 1194.18 z" fill="rgb(169,245,206)" transform="translate(0,0)"></path>
<path d="M 1459.3 1285.95 C 1463.6 1279.28 1462.15 1289.86 1462.23 1293.36 C 1460.97 1290.55 1460.28 1288.85 1459.3 1285.95 z" fill="rgb(3,6,21)" transform="translate(0,0)"></path>
<path d="M 1458.69 1212.78 C 1461.68 1234.33 1458.7 1260.52 1447.7 1280.2 C 1428.72 1314.16 1358.54 1319.75 1328.35 1300.54 C 1323.32 1296.18 1318.64 1289.65 1317.76 1283.13 C 1310.39 1228.59 1386.23 1242.41 1418.26 1236.28 C 1437.62 1232.58 1448.04 1227.77 1458.69 1212.78 z" fill="rgb(8,1,26)" transform="translate(0,0)"></path>
<path d="M 531.725 1126.42 L 725.083 1126.65 L 725.054 1163.05 C 709.252 1178.52 691.021 1194.41 674.52 1209.33 L 572.457 1301.04 L 723.764 1301.06 L 723.742 1332.68 C 720.678 1334.87 554.042 1333.89 530.871 1333.85 L 530.785 1293.51 C 546.5 1280.79 567.292 1260.65 582.882 1246.67 C 615.276 1217.91 647.503 1188.97 679.563 1159.85 C 630.856 1159.11 580.436 1159.55 531.647 1159.69 L 531.725 1126.42 z" fill="rgb(169,245,206)" transform="translate(0,0)"></path>
<path d="M 1066.85 1126.17 L 1105.88 1126.19 C 1116.89 1151.31 1127.44 1179.51 1137.68 1205.08 C 1151.33 1238.49 1164.66 1272.03 1177.66 1305.7 C 1184.16 1287.24 1192.74 1267.5 1200.1 1249.06 L 1249.67 1126.14 L 1287.19 1126.13 L 1279.18 1146.29 C 1254.47 1206.37 1225.86 1273.43 1202.99 1333.72 L 1152.87 1333.84 C 1123.48 1265.11 1096.14 1194.93 1066.85 1126.17 z" fill="rgb(169,245,206)" transform="translate(0,0)"></path>
<path d="M 1005.81 1053.24 L 1041.73 1053.28 C 1041.16 1100.51 1040.98 1147.74 1041.2 1194.97 C 1041.15 1220.79 1040.49 1247.72 1041.64 1273.55 C 1042.61 1295.6 1050.81 1302.26 1071.94 1304.85 L 1071.96 1333.96 C 1015.87 1334.66 1004.05 1300.77 1005.79 1252.02 C 1006.31 1237.62 1005.78 1220.85 1005.78 1206.28 L 1005.81 1053.24 z" fill="rgb(169,245,206)" transform="translate(0,0)"></path>
<path d="M 1085.38 707.418 C 1100.81 706.733 1118.05 708.253 1130.42 718.565 C 1143.6 727.364 1148.07 757.317 1135.32 768.183 C 1117.66 783.232 1091.31 799.418 1071.69 812.494 L 963.092 885.359 C 957.663 888.988 951.346 892.829 946.166 896.682 C 934.529 905.337 913.01 914.635 915.836 932.218 C 920.053 957.883 957.289 961.303 976.304 952.172 C 1003.94 938.903 1028.13 911.972 1058.91 906.552 C 1094.16 900.343 1134.7 919.304 1141.13 956.989 C 1141.87 961.302 1142.56 965.013 1139.92 968.624 C 1138.18 968.372 1135.13 967.335 1134.8 965.906 C 1127.79 935.312 1117.25 921.931 1082.73 914.982 C 1036.3 905.639 1006.5 957.525 963.231 964.931 C 937.913 965.759 909.423 960.98 906.919 929.023 C 905.407 909.725 929.012 898.13 942.495 888.626 C 954.175 880.391 967.245 872.227 979.386 864.101 L 1086.15 792.242 C 1096.58 785.314 1122.35 770.514 1129.25 762.387 C 1146.12 742.502 1126.89 720.649 1105.69 717.176 C 1055.6 708.97 1031.45 764.28 983.08 767.761 C 945.839 770.441 911.242 751.058 905.578 712.426 C 905.222 709.941 906.75 709.037 908.372 707.727 C 909.67 707.801 913.048 708.259 913.289 709.835 C 918.92 746.66 953.724 764.58 989.018 758.107 C 1022.62 751.945 1051.19 712.211 1085.38 707.418 z" fill="rgb(169,245,206)" transform="translate(0,0)"></path>
<metadata><recraft-signature>{"signed_by": "recraft", "signature_b64": "yCqoELvS1Ii+OsvuMm4IlsJ5YKusrUWFXpHp46UiyNUaZiFgBBV0SW5eL0XTYMjNy4JxGmR/DMVNzCk+0PocAg==", "signing_algo": "Ed25519", "generation_timestamp": 1783943072, "identifier": "e3b66c68-1394-489b-b6e1-40654361e0cb"}</recraft-signature></metadata></svg>